<?xml version="1.0" encoding="iso-8859-1"?>
<!-- Generator: Adobe Illustrator 19.0.0, SVG Export Plug-In . SVG Version: 6.00 Build 0)  -->
<svg version="1.1" id="Layer_1" xmlns="http://www.w3.org/2000/svg" xmlns:xlink="http://www.w3.org/1999/xlink" x="0px" y="0px"
	 viewBox="0 0 512 512" style="enable-background:new 0 0 512 512;" xml:space="preserve">
<g>
	<g>
		<path d="M256,0C114.842,0,0,114.842,0,256s114.842,256,256,256s256-114.842,256-256S397.158,0,256,0z M395.636,279.273H338.08
			c-1.828,6.44-4.388,12.572-7.596,18.299l40.71,40.71c9.089,9.089,9.089,23.824,0,32.914c-4.544,4.544-10.501,6.816-16.455,6.816
			c-5.956,0-11.912-2.271-16.455-6.816l-40.71-40.71c-5.727,3.208-11.858,5.769-18.299,7.596v57.555
			c0,12.853-10.42,23.273-23.273,23.273c-12.853,0-23.273-10.42-23.273-23.273v-57.555c-6.439-1.829-12.57-4.388-18.299-7.596
			l-40.71,40.71c-4.544,4.544-10.501,6.816-16.455,6.816c-5.956,0-11.913-2.271-16.455-6.816c-9.089-9.089-9.089-23.823,0-32.914
			l40.71-40.71c-3.208-5.727-5.77-11.858-7.596-18.299h-57.56c-12.853,0-23.273-10.42-23.273-23.273
			c0-12.853,10.42-23.273,23.273-23.273h57.557c1.828-6.44,4.388-12.572,7.596-18.299l-40.71-40.71
			c-9.089-9.089-9.089-23.824,0-32.914c9.087-9.087,23.823-9.087,32.912,0l40.71,40.71c5.727-3.209,11.858-5.769,18.299-7.596
			v-57.555c0-12.853,10.42-23.273,23.273-23.273c12.853,0,23.273,10.42,23.273,23.273v57.555c6.439,1.829,12.57,4.388,18.299,7.596
			l40.71-40.71c9.087-9.087,23.824-9.087,32.912,0c9.089,9.089,9.089,23.823,0,32.914l-40.71,40.71
			c3.209,5.727,5.77,11.858,7.596,18.299h57.557c12.853,0,23.273,10.42,23.273,23.273
			C418.909,268.853,408.489,279.273,395.636,279.273z"/>
	</g>
</g>
<g>
	<g>
		<path d="M272.448,239.538c-4.329-4.329-10.319-6.811-16.448-6.811c-6.083,0-12.038,2.45-16.359,6.718
			c-0.033,0.033-0.07,0.06-0.102,0.093c-0.031,0.033-0.059,0.068-0.09,0.099c-4.27,4.336-6.721,10.279-6.721,16.362
			c0,6.087,2.454,12.032,6.729,16.368c0.031,0.029,0.054,0.064,0.084,0.093c0.031,0.031,0.065,0.056,0.096,0.085
			c4.319,4.273,10.277,6.726,16.364,6.726c6.128,0,12.119-2.482,16.448-6.811c4.344-4.344,6.825-10.333,6.825-16.462
			C279.273,249.872,276.79,243.881,272.448,239.538z"/>
	</g>
</g>
<g>
</g>
<g>
</g>
<g>
</g>
<g>
</g>
<g>
</g>
<g>
</g>
<g>
</g>
<g>
</g>
<g>
</g>
<g>
</g>
<g>
</g>
<g>
</g>
<g>
</g>
<g>
</g>
<g>
</g>
</svg>
