<?xml version="1.0" encoding="iso-8859-1"?>
<!-- Generator: Adobe Illustrator 19.0.0, SVG Export Plug-In . SVG Version: 6.00 Build 0)  -->
<svg version="1.1" id="Layer_1" xmlns="http://www.w3.org/2000/svg" xmlns:xlink="http://www.w3.org/1999/xlink" x="0px" y="0px"
	 viewBox="0 0 512 512" style="enable-background:new 0 0 512 512;" xml:space="preserve">
<g>
	<g>
		<g>
			<path d="M187.733,162.133c0-18.825-15.309-34.133-34.133-34.133c-18.825,0-34.133,15.309-34.133,34.133
				s15.309,34.133,34.133,34.133C172.425,196.267,187.733,180.958,187.733,162.133z M145.067,179.2c0-4.71,3.823-8.533,8.533-8.533
				c4.71,0,8.533,3.823,8.533,8.533s-3.823,8.533-8.533,8.533C148.89,187.733,145.067,183.91,145.067,179.2z"/>
			<path d="M255.625,256c-50.807,0-96.845,30.071-117.265,76.621c-3.328,7.578-2.193,15.821,3.038,22.033
				c5.154,6.127,12.928,8.61,20.89,6.673c4.813-1.186,9.515-2.048,14.259-3.021c0.324-0.111,0.614-0.307,0.964-0.384
				c1.681-0.341,3.396-0.589,5.094-0.905c2.543-0.478,5.069-0.93,7.586-1.357c4.582-0.759,9.19-1.417,13.824-2.014
				c2.509-0.324,5.035-0.708,7.518-0.981c6.135-0.666,12.305-1.186,18.5-1.562c3.721-0.23,7.322-0.307,10.965-0.427
				c2.108-0.068,4.215-0.213,6.323-0.247c0.128-0.009,0.239,0.06,0.367,0.06c2.057-0.026,4.207-0.171,6.238-0.171
				c38.135,0,71.322,5.478,96.478,11.588c7.543,1.801,15.113-0.64,20.215-6.605c4.941-5.777,6.178-13.338,3.319-20.233
				C354.049,287.036,307.61,256,255.625,256z"/>
			<path d="M212.673,369.719c-8.055,0.887-16.043,2.057-23.936,3.473c-0.333,0.06-0.666,0.128-1.007,0.188v44.757
				c0,4.702,3.831,8.533,8.533,8.533c4.71,0,8.533-3.831,8.533-8.533V401.07c0-4.719,3.823-8.533,8.533-8.533
				c4.719,0,8.533,3.814,8.533,8.533c0,4.702,3.831,8.533,8.533,8.533c4.71,0,8.533-3.831,8.533-8.533v-33.331
				c-8.525,0.333-17.007,0.973-25.421,1.886C213.228,369.65,212.954,369.685,212.673,369.719z"/>
			<path d="M256,0C114.842,0,0,114.842,0,256s114.842,256,256,256s256-114.842,256-256S397.158,0,256,0z M102.4,162.133
				c0-28.237,22.963-51.2,51.2-51.2c28.237,0,51.2,22.963,51.2,51.2c0,28.237-22.963,51.2-51.2,51.2
				C125.363,213.333,102.4,190.37,102.4,162.133z M383.582,366.396c-7.245,8.482-17.604,13.158-28.365,13.158
				c-2.935,0-5.897-0.358-8.832-1.067c-23.663-5.743-54.733-10.897-90.385-11.093v33.673c0,14.114-11.486,25.6-25.6,25.6
				c-3.328,0-6.511-0.64-9.429-1.801c-2.961,10.863-12.919,18.867-24.704,18.867c-14.114,0-25.6-11.486-25.6-25.6v-41.207
				c-1.434,0.333-2.85,0.614-4.292,0.964c-14.097,3.49-28.723-1.195-38.033-12.245c-9.378-11.136-11.529-26.419-5.615-39.885
				c23.151-52.745,75.315-86.827,132.898-86.827c58.914,0,111.539,35.174,134.084,89.6C395,341.299,392.653,355.806,383.582,366.396
				z M358.4,213.333c-28.237,0-51.2-22.963-51.2-51.2c0-28.237,22.963-51.2,51.2-51.2s51.2,22.963,51.2,51.2
				C409.6,190.37,386.637,213.333,358.4,213.333z"/>
			<path d="M358.4,128c-18.825,0-34.133,15.309-34.133,34.133s15.309,34.133,34.133,34.133s34.133-15.309,34.133-34.133
				S377.225,128,358.4,128z M358.4,153.6c-4.71,0-8.533-3.823-8.533-8.533c0-4.71,3.823-8.533,8.533-8.533s8.533,3.823,8.533,8.533
				C366.933,149.777,363.11,153.6,358.4,153.6z"/>
		</g>
	</g>
</g>
<g>
</g>
<g>
</g>
<g>
</g>
<g>
</g>
<g>
</g>
<g>
</g>
<g>
</g>
<g>
</g>
<g>
</g>
<g>
</g>
<g>
</g>
<g>
</g>
<g>
</g>
<g>
</g>
<g>
</g>
</svg>
