<?xml version="1.0" encoding="iso-8859-1"?>
<!-- Generator: Adobe Illustrator 18.1.1, SVG Export Plug-In . SVG Version: 6.00 Build 0)  -->
<svg version="1.1" id="Capa_1" xmlns="http://www.w3.org/2000/svg" xmlns:xlink="http://www.w3.org/1999/xlink" x="0px" y="0px"
	 viewBox="0 0 44.995 44.995" style="enable-background:new 0 0 44.995 44.995;" xml:space="preserve">
<g>
	<g>
		<g>
			<path style="fill:#010002;" d="M36.421,30.446c-0.612,1.713-1.487,3.306-2.464,4.838c-1.339-1.344-2.545-2.803-3.455-4.497
				c-0.094-0.176-0.204-0.329-0.316-0.468c-0.059-0.42-0.172-0.837-0.348-1.243c-0.918-2.111-1.713-3.879-2.484-5.593
				c-0.65-1.448-1.282-2.852-1.953-4.385c3.746-1.427,7.63-2.995,11.481-4.798c1.091-0.51,1.611-1.532,1.36-2.665
				c-0.289-1.295-1.474-2.272-2.755-2.272c-0.401,0-0.8,0.091-1.185,0.272c-3.529,1.652-7.096,3.094-11.122,4.614
				c-0.471-0.631-1.08-1.124-1.767-1.454c0.8-3.197,1.893-6.963,2.708-9.054c0.549-1.412-0.149-3.003-1.561-3.554
				c-1.414-0.549-3.003,0.149-3.554,1.561c-1.198,3.076-2.795,8.882-3.597,12.613c-0.912,1.303-1.163,3.028-0.505,4.604
				c1.403,3.369,2.515,5.84,3.69,8.454c0.698,1.551,1.421,3.164,2.235,5.027c-5.266,2.333-10.883,5.019-15.876,7.077
				c-3.202,1.32-1.801,6.595,1.448,5.255c6.373-2.629,13.775-6.286,20.149-8.913c0.189-0.079,0.36-0.174,0.518-0.277
				c1.524,2.159,3.435,4.041,5.427,5.773c1.404,1.221,3.222,0.941,4.28-0.55c1.984-2.798,3.74-5.669,4.901-8.91
				C42.867,28.578,37.599,27.163,36.421,30.446z"/>
			<circle style="fill:#010002;" cx="9.056" cy="15" r="4.881"/>
		</g>
	</g>
</g>
<g>
</g>
<g>
</g>
<g>
</g>
<g>
</g>
<g>
</g>
<g>
</g>
<g>
</g>
<g>
</g>
<g>
</g>
<g>
</g>
<g>
</g>
<g>
</g>
<g>
</g>
<g>
</g>
<g>
</g>
</svg>
