<?xml version="1.0" encoding="iso-8859-1"?>
<!-- Generator: Adobe Illustrator 19.2.1, SVG Export Plug-In . SVG Version: 6.00 Build 0)  -->
<svg version="1.1" id="heart-wings-halo-love-wedding-valentine"
	 xmlns="http://www.w3.org/2000/svg" xmlns:xlink="http://www.w3.org/1999/xlink" x="0px" y="0px" viewBox="0 0 63.303 64"
	 style="enable-background:new 0 0 63.303 64;" xml:space="preserve">
<path d="M61.728,27.702c1.083-2.444,0.631-5.409-1.369-7.409c-0.286-0.286-0.701-0.358-1.056-0.225
	c0.018-1.727-0.628-3.46-1.944-4.775c-0.391-0.391-1.023-0.391-1.414,0l-6.88,6.88c-0.433-0.712-0.944-1.389-1.556-2.005
	C45.48,18.125,42.784,17,39.915,17c-0.001,0-0.001,0-0.001,0c-2.869,0-5.567,1.125-7.596,3.168l-0.667,0.672l-0.667-0.672
	C28.955,18.125,26.258,17,23.388,17c-2.869,0-5.565,1.125-7.594,3.168c-0.612,0.616-1.123,1.293-1.556,2.005l-6.88-6.88
	c-0.391-0.391-1.023-0.391-1.414,0c-1.315,1.315-1.961,3.048-1.944,4.775c-0.355-0.133-0.77-0.061-1.056,0.225
	c-2.001,2-2.453,4.965-1.37,7.409c-2.215,2.613-2.095,6.541,0.37,9.005C5.356,40.12,9.895,42,14.723,42H22.3l8.642,8.704
	C31.13,50.894,31.385,51,31.651,51c0.267,0,0.521-0.106,0.71-0.296L41.003,42h7.577c4.827,0,9.366-1.88,12.778-5.293
	C63.823,34.243,63.943,30.314,61.728,27.702z M14.723,40c-4.293,0-8.329-1.672-11.364-4.707c-1.573-1.573-1.783-4.001-0.631-5.802
	l4.217,4.216l1.414-1.414l-3-3l-1-1c-1.573-1.573-1.783-4.001-0.631-5.802l5.217,5.216l1.414-1.414l-2-2l-1-1
	c-1.573-1.573-1.783-4.001-0.631-5.802l6.594,6.593c-1.391,3.829-0.574,8.295,2.473,11.363L20.314,40H14.723z M31.651,48.581
	L17.214,34.038c-3.412-3.436-3.412-9.025,0-12.461C18.863,19.916,21.056,19,23.389,19c2.332,0,4.526,0.915,6.176,2.577l1.377,1.387
	c0.375,0.378,1.045,0.378,1.42,0l1.377-1.387C35.388,19.915,37.581,19,39.914,19s4.525,0.916,6.175,2.577
	c3.412,3.436,3.412,9.025,0,12.461L31.651,48.581z M59.944,35.293C56.909,38.328,52.873,40,48.58,40h-5.591l4.52-4.553
	c3.047-3.068,3.864-7.534,2.473-11.363l6.594-6.593c1.152,1.801,0.942,4.229-0.631,5.802l-1,1l-2,2l1.414,1.414l5.217-5.216
	c1.152,1.801,0.942,4.229-0.631,5.802l-1,1l-3,3l1.414,1.414l4.217-4.216C61.727,31.292,61.517,33.72,59.944,35.293z"/>
<path d="M31.651,58c-7.299,0-16,0.521-16,3s8.701,3,16,3c7.299,0,16-0.521,16-3S38.95,58,31.651,58z M31.651,62
	c-6.529,0-10.852-0.523-12.888-1c2.036-0.477,6.358-1,12.888-1c6.529,0,10.852,0.523,12.888,1C42.503,61.477,38.181,62,31.651,62z"
	/>
<path d="M31.651,14c9.695,0,20-2.453,20-7s-10.305-7-20-7c-9.695,0-20,2.453-20,7S21.956,14,31.651,14z M31.651,2
	c11.152,0,18,2.912,18,5s-6.848,5-18,5c-11.152,0-18-2.912-18-5S20.499,2,31.651,2z"/>
<path d="M21.61,9.404C24.3,9.789,27.866,10,31.651,10c3.785,0,7.352-0.211,10.041-0.596C45.261,8.894,46.651,8.22,46.651,7
	s-1.391-1.894-4.959-2.404C39.003,4.211,35.436,4,31.651,4C27.866,4,24.3,4.211,21.61,4.596C18.042,5.106,16.651,5.78,16.651,7
	S18.042,8.894,21.61,9.404z M31.651,6c6.108,0,10.145,0.527,12.018,1c-1.872,0.473-5.909,1-12.018,1c-6.108,0-10.146-0.527-12.018-1
	C21.506,6.527,25.543,6,31.651,6z"/>
<rect x="45.651" y="44" width="2" height="2"/>
<rect x="49.651" y="44" width="2" height="2"/>
<rect x="41.651" y="44" width="2" height="2"/>
</svg>
