<?xml version="1.0" encoding="iso-8859-1"?>
<!-- Generator: Adobe Illustrator 18.0.0, SVG Export Plug-In . SVG Version: 6.00 Build 0)  -->
<!DOCTYPE svg PUBLIC "-//W3C//DTD SVG 1.1//EN" "http://www.w3.org/Graphics/SVG/1.1/DTD/svg11.dtd">
<svg version="1.1" id="Capa_1" xmlns="http://www.w3.org/2000/svg" xmlns:xlink="http://www.w3.org/1999/xlink" x="0px" y="0px"
	 viewBox="0 0 44 44" style="enable-background:new 0 0 44 44;" xml:space="preserve">
<path d="M22,0C9.869,0,0,9.869,0,22s9.869,22,22,22s22-9.869,22-22S34.131,0,22,0z M28.425,11.471c0.391-0.391,1.023-0.391,1.414,0
	c0.332,0.331,0.77,0.516,1.234,0.52c0.004,0,0.009,0,0.013,0c0.341,0,0.666-0.099,0.943-0.283c0.093-0.062,0.181-0.133,0.264-0.216
	c0.391-0.391,1.023-0.391,1.414,0s0.391,1.023,0,1.414c-0.733,0.734-1.677,1.101-2.623,1.101c-0.955,0-1.912-0.374-2.659-1.121
	C28.034,12.494,28.034,11.861,28.425,11.471z M10.409,12.309c0.391-0.391,1.023-0.391,1.414,0c0.332,0.331,0.77,0.516,1.234,0.52
	c0.091,0.006,0.182-0.004,0.273-0.016c0.023-0.004,0.046-0.002,0.069-0.007c0.021-0.004,0.042-0.014,0.063-0.019
	c0.195-0.047,0.381-0.125,0.551-0.239c0.095-0.064,0.184-0.137,0.265-0.218c0.391-0.391,1.023-0.391,1.414,0
	c0.195,0.195,0.293,0.451,0.293,0.707c0,0.256-0.098,0.512-0.293,0.707c-0.734,0.734-1.678,1.101-2.623,1.101
	c-0.956,0-1.913-0.374-2.659-1.121c-0.195-0.195-0.293-0.451-0.293-0.707C10.116,12.759,10.214,12.503,10.409,12.309z M8,18.5
	c0-0.768,0.255-1.472,0.674-2.049c1.682,1.308,4.067,1.802,6.268,1.472C14.973,18.112,15,18.302,15,18.5c0,1.933-1.567,3.5-3.5,3.5
	S8,20.433,8,18.5z M31.948,31.316l-2,6C29.812,37.725,29.431,38,29,38s-0.813-0.275-0.948-0.684L26.28,32H17.72l-1.772,5.316
	C15.812,37.725,15.431,38,15,38s-0.813-0.275-0.948-0.684l-2-6c-0.032-0.095-0.044-0.192-0.046-0.29C12.005,31.017,12,31.009,12,31
	c0-0.013,0.007-0.024,0.008-0.037c0.004-0.119,0.024-0.236,0.07-0.346c0.003-0.008,0.009-0.014,0.012-0.022
	c0.028-0.062,0.059-0.123,0.099-0.179c0.024-0.033,0.054-0.059,0.081-0.088c0.015-0.017,0.029-0.034,0.045-0.049
	c0.081-0.077,0.173-0.139,0.273-0.184c0.02-0.009,0.041-0.015,0.062-0.023C12.761,30.029,12.878,30,13,30h4h10h4
	c0.122,0,0.239,0.029,0.35,0.07c0.021,0.008,0.042,0.014,0.062,0.023c0.101,0.046,0.192,0.107,0.273,0.184
	c0.016,0.016,0.03,0.033,0.045,0.049c0.027,0.029,0.057,0.055,0.081,0.088c0.04,0.056,0.071,0.117,0.099,0.179
	c0.004,0.008,0.009,0.014,0.012,0.022c0.046,0.11,0.065,0.228,0.07,0.346C31.993,30.976,32,30.987,32,31
	c0,0.01-0.005,0.017-0.005,0.027C31.992,31.124,31.98,31.222,31.948,31.316z M32.5,22c-1.933,0-3.5-1.567-3.5-3.5
	c0-0.198,0.027-0.388,0.058-0.577c2.201,0.33,4.585-0.165,6.268-1.472C35.745,17.028,36,17.732,36,18.5C36,20.433,34.433,22,32.5,22
	z"/>
<g>
</g>
<g>
</g>
<g>
</g>
<g>
</g>
<g>
</g>
<g>
</g>
<g>
</g>
<g>
</g>
<g>
</g>
<g>
</g>
<g>
</g>
<g>
</g>
<g>
</g>
<g>
</g>
<g>
</g>
</svg>
